<?xml version="1.0" encoding="utf-8"?>
<svg viewBox="1.3937 0 359.9605 73" xmlns="http://www.w3.org/2000/svg">
  <circle cx="53.5" cy="36.5" r="36.5" fill="#D8E3FF"/>
  <path d="M3.43651 12.0425C5.63232 12.2316 7.87829 12.7788 9.92735 14.1728C10.4109 14.576 10.9525 14.8862 11.3964 15.3781C11.8405 15.8591 12.3298 16.332 12.7064 16.8622C13.0606 17.3289 13.4047 17.7933 13.7386 18.2771C19.212 18.6508 24.6736 19.3881 30.0833 20.6322C33.8508 21.4791 37.5741 22.6347 41.2594 24.0012C44.4983 25.2983 47.7186 26.8565 50.7235 29.0196C41.603 19.039 31.7885 15.4665 27.1317 13.8558C16.9991 10.3487 7.94427 10.7712 1.39374 12.0144C2.06847 11.9888 2.75431 12.0048 3.43651 12.0425Z" fill="#504B8E"/>
  <path d="M29.6337 23.8305C25.952 22.9304 22.2231 22.3062 18.4881 21.7691C17.5835 21.6347 16.679 21.5003 15.7789 21.4008C16.8632 23.1541 17.881 25.0088 18.8113 26.9191C18.9996 27.3051 19.1861 27.7041 19.3743 28.101C24.2552 28.4621 29.1319 29.1347 33.9746 30.2077L36.7441 30.9255L38.1262 31.2952L39.4955 31.7388L42.2324 32.6369C43.1424 32.9849 44.0405 33.3501 44.945 33.7285C48.5316 35.2352 52.0678 37.1267 55.3103 39.7375C57.9671 41.8501 60.4786 44.453 62.4359 47.6648C61.3012 44.9632 59.9406 42.1865 58.3161 39.415C56.192 36.434 53.6627 34.0269 50.9281 32.1159C47.6803 29.8819 44.1793 28.2239 40.5843 26.9698C36.9891 25.7288 33.3354 24.6134 29.6337 23.8305Z" fill="#504B8E"/>
  <path d="M54.3269 41.9417C51.1357 39.7237 47.7379 37.9604 44.2168 36.6725L41.5898 35.6714L38.9171 34.8352L37.5757 34.4224L36.2216 34.0836L33.5217 33.406C29.894 32.5894 26.2426 31.9097 22.5698 31.4562C21.9652 31.3629 21.3587 31.2783 20.7504 31.2068C21.1777 32.1843 21.6035 33.0266 22.1355 33.7899C23.4403 35.6508 25.1018 37.0657 26.9724 37.9627C27.9042 38.4265 28.8713 38.7448 29.8922 39.0354L33.0483 39.9197L45.6553 43.6285L51.9336 45.5534C54.1242 46.3634 56.1813 47.6595 58.0231 49.3143C61.5847 52.5155 64.3584 56.8168 66.612 61.4247C65.7823 57.5422 64.462 53.8882 62.6337 50.7675C60.4634 47.0169 57.4857 44.2049 54.3269 41.9417Z" fill="#504B8E"/>
  <text style="fill: rgb(80, 75, 142); font-family: 'Arial Rounded MT'; font-size: 38px; white-space: pre;" x="100.073" y="52.104">FPoly Booking</text>
</svg>